<svg width="9" height="17" viewBox="0 0 9 17" fill="none" xmlns="http://www.w3.org/2000/svg">
<path d="M8.10559 0.421883C8.22149 0.421908 8.33477 0.4563 8.43112 0.52071C8.52746 0.58512 8.60254 0.676654 8.64686 0.783737C8.69119 0.89082 8.70276 1.00864 8.68011 1.1223C8.65747 1.23596 8.60163 1.34035 8.51966 1.42227L1.71146 8.23048L8.51966 15.0387C8.62639 15.1492 8.68545 15.2972 8.68411 15.4508C8.68278 15.6045 8.62116 15.7514 8.51252 15.8601C8.40388 15.9687 8.25692 16.0303 8.10329 16.0317C7.94966 16.033 7.80165 15.9739 7.69114 15.8672L0.468493 8.64454C0.358647 8.53466 0.296938 8.38565 0.296938 8.23028C0.296938 8.07491 0.358647 7.92591 0.468493 7.81603L7.69114 0.593368C7.74558 0.538967 7.8102 0.495822 7.88131 0.466398C7.95242 0.436975 8.02863 0.421848 8.10559 0.421883Z" fill="#6D6B67" fill-opacity="0.45"/>
</svg>
