<svg width="40" height="38" viewBox="0 0 40 38" fill="none" xmlns="http://www.w3.org/2000/svg">
<g filter="url(#filter0_d_95_151)">
<path d="M27.0392 33.0268C25.816 33.0184 24.5981 32.8767 23.4109 32.6045C19.3111 31.6911 15.0894 29.3743 11.5252 26.0806C7.96108 22.7869 5.44866 18.8881 4.45949 15.1064C3.41793 11.1282 4.16078 7.72475 6.54887 5.5198L7.23073 4.89023C7.84938 4.32016 8.68771 4 9.56173 4C10.4358 4 11.2741 4.32016 11.8927 4.89023L15.8111 8.50739C16.4289 9.07841 16.7759 9.85252 16.7759 10.6596C16.7759 11.4668 16.4289 12.2409 15.8111 12.8119L13.4965 14.9482C14.6061 16.746 16.1153 18.5452 17.8989 20.192C19.6826 21.8389 21.6328 23.2331 23.579 24.2576L25.8928 22.1205C26.1989 21.8378 26.5623 21.6135 26.9623 21.4605C27.3622 21.3075 27.7909 21.2288 28.2238 21.2288C28.6568 21.2288 29.0855 21.3075 29.4854 21.4605C29.8854 21.6135 30.2488 21.8378 30.5548 22.1205L34.4724 25.7376C35.0904 26.3084 35.4375 27.0825 35.4375 27.8895C35.4375 28.6966 35.0904 29.4706 34.4724 30.0414L33.7898 30.671C32.1062 32.2283 29.776 33.0268 27.0392 33.0268ZM9.56173 6.16454C9.43688 6.16396 9.31317 6.1864 9.19783 6.23054C9.08249 6.27467 8.97785 6.33962 8.89004 6.42156L8.20739 7.05114C6.41906 8.70232 5.89672 11.3831 6.73654 14.5952C7.62562 17.9979 9.9144 21.5335 13.1806 24.5485C16.4468 27.5635 20.2753 29.6746 23.9614 30.4984C27.4411 31.2738 30.3429 30.7916 32.1313 29.1404L32.8131 28.5108C32.9913 28.3462 33.0914 28.123 33.0914 27.8902C33.0914 27.6575 32.9913 27.4343 32.8131 27.2697L28.8963 23.6525C28.718 23.488 28.4763 23.3956 28.2242 23.3956C27.9722 23.3956 27.7304 23.488 27.5521 23.6525L24.619 26.3607C24.443 26.5233 24.2156 26.63 23.9696 26.6653C23.7236 26.7006 23.4718 26.6627 23.2506 26.5571C20.8461 25.4091 18.4221 23.7377 16.2404 21.7234C14.0588 19.709 12.2524 17.4723 11.006 15.2522C10.8915 15.0481 10.8504 14.8156 10.8885 14.5885C10.9266 14.3614 11.0419 14.1513 11.2179 13.9887L14.1518 11.2805C14.33 11.1159 14.43 10.8927 14.43 10.66C14.43 10.4273 14.33 10.2041 14.1518 10.0394L10.2342 6.42156C10.1461 6.33976 10.0413 6.27491 9.92589 6.23079C9.81045 6.18667 9.68667 6.16415 9.56173 6.16454Z" fill="url(#paint0_linear_95_151)"/>
<path d="M28.2923 20.0072C27.9812 20.0072 27.6829 19.8931 27.4629 19.69C27.2429 19.4869 27.1194 19.2114 27.1194 18.9242C27.1171 17.0243 26.2987 15.2028 24.8438 13.8593C23.3889 12.5158 21.4162 11.7601 19.3585 11.7578C19.0474 11.7578 18.7491 11.6437 18.5291 11.4406C18.3091 11.2375 18.1855 10.962 18.1855 10.6748C18.1855 10.3876 18.3091 10.1121 18.5291 9.909C18.7491 9.7059 19.0474 9.5918 19.3585 9.5918C24.9315 9.5918 29.4652 13.7793 29.4652 18.9242C29.4652 19.2114 29.3416 19.4869 29.1217 19.69C28.9017 19.8931 28.6034 20.0072 28.2923 20.0072Z" fill="url(#paint1_linear_95_151)"/>
<path d="M33.2499 20.0072C32.9388 20.0072 32.6405 19.8931 32.4205 19.69C32.2005 19.4869 32.0769 19.2115 32.0769 18.9242C32.0769 12.4487 26.3687 7.18037 19.3585 7.18037C19.0474 7.18037 18.7491 7.06627 18.5291 6.86317C18.3091 6.66007 18.1855 6.38461 18.1855 6.09739C18.1855 5.81016 18.3091 5.5347 18.5291 5.3316C18.7491 5.1285 19.0474 5.0144 19.3585 5.0144C27.6652 5.0144 34.4228 11.2545 34.4228 18.9242C34.4228 19.2115 34.2992 19.4869 34.0793 19.69C33.8593 19.8931 33.561 20.0072 33.2499 20.0072Z" fill="url(#paint2_linear_95_151)"/>
</g>
<defs>
<filter id="filter0_d_95_151" x="0" y="0" width="39.4375" height="37.0269" filterUnits="userSpaceOnUse" color-interpolation-filters="sRGB">
<feFlood flood-opacity="0" result="BackgroundImageFix"/>
<feColorMatrix in="SourceAlpha" type="matrix" values="0 0 0 0 0 0 0 0 0 0 0 0 0 0 0 0 0 0 127 0" result="hardAlpha"/>
<feOffset/>
<feGaussianBlur stdDeviation="2"/>
<feComposite in2="hardAlpha" operator="out"/>
<feColorMatrix type="matrix" values="0 0 0 0 1 0 0 0 0 1 0 0 0 0 1 0 0 0 1 0"/>
<feBlend mode="normal" in2="BackgroundImageFix" result="effect1_dropShadow_95_151"/>
<feBlend mode="normal" in="SourceGraphic" in2="effect1_dropShadow_95_151" result="shape"/>
</filter>
<linearGradient id="paint0_linear_95_151" x1="19.7187" y1="4" x2="19.7187" y2="33.0268" gradientUnits="userSpaceOnUse">
<stop stop-color="#FDE511"/>
<stop offset="1" stop-color="#FFD222"/>
</linearGradient>
<linearGradient id="paint1_linear_95_151" x1="23.8254" y1="9.5918" x2="23.8254" y2="20.0072" gradientUnits="userSpaceOnUse">
<stop stop-color="#FDE511"/>
<stop offset="1" stop-color="#FFD222"/>
</linearGradient>
<linearGradient id="paint2_linear_95_151" x1="26.3042" y1="5.0144" x2="26.3042" y2="20.0072" gradientUnits="userSpaceOnUse">
<stop stop-color="#FDE511"/>
<stop offset="1" stop-color="#FFD222"/>
</linearGradient>
</defs>
</svg>
