<svg width="180" height="180" viewBox="0 0 180 180" fill="none" xmlns="http://www.w3.org/2000/svg">
<g filter="url(#filter0_d_95_88)">
<circle cx="90" cy="86" r="50" fill="url(#paint0_linear_95_88)"/>
</g>
<g filter="url(#filter1_d_95_88)">
<path d="M100.889 109.499C99.0099 109.485 97.1391 109.248 95.3155 108.791C89.0177 107.259 82.5326 103.373 77.0577 97.849C71.5827 92.3247 67.7234 85.7857 66.2039 79.4428C64.6039 72.7705 65.745 67.0622 69.4134 63.364L70.4608 62.308C71.4111 61.3519 72.6989 60.8149 74.0415 60.8149C75.3841 60.8149 76.6719 61.3519 77.6222 62.308L83.6413 68.3748C84.5903 69.3325 85.1234 70.6309 85.1234 71.9846C85.1234 73.3383 84.5903 74.6367 83.6413 75.5944L80.0858 79.1776C81.7903 82.1928 84.1085 85.2105 86.8484 87.9726C89.5883 90.7348 92.584 93.0731 95.5737 94.7914L99.128 91.207C99.5982 90.7329 100.156 90.3567 100.771 90.1001C101.385 89.8435 102.044 89.7114 102.709 89.7114C103.374 89.7114 104.032 89.8435 104.647 90.1001C105.261 90.3567 105.819 90.7329 106.289 91.207L112.307 97.2738C113.256 98.2312 113.79 99.5294 113.79 100.883C113.79 102.237 113.256 103.535 112.307 104.492L111.259 105.548C108.673 108.16 105.093 109.499 100.889 109.499ZM74.0415 64.4453C73.8497 64.4444 73.6597 64.482 73.4825 64.556C73.3053 64.63 73.1446 64.739 73.0097 64.8764L71.9611 65.9324C69.214 68.7018 68.4116 73.198 69.7017 78.5854C71.0674 84.2926 74.5832 90.2225 79.6005 95.2794C84.6178 100.336 90.4988 103.877 96.1611 105.259C101.506 106.559 105.964 105.75 108.711 102.981L109.758 101.925C110.032 101.649 110.186 101.275 110.186 100.884C110.186 100.494 110.032 100.12 109.758 99.8434L103.742 93.7766C103.468 93.5008 103.096 93.3458 102.709 93.3458C102.322 93.3458 101.951 93.5008 101.677 93.7766L97.1713 98.3189C96.9009 98.5916 96.5515 98.7705 96.1736 98.8297C95.7957 98.8889 95.4089 98.8254 95.0692 98.6482C91.3756 96.7229 87.652 93.9195 84.3007 90.541C80.9495 87.1625 78.1748 83.411 76.2601 79.6874C76.0843 79.3451 76.021 78.9552 76.0795 78.5742C76.1381 78.1933 76.3153 77.8409 76.5856 77.5682L81.0924 73.026C81.3661 72.7499 81.5198 72.3755 81.5198 71.9852C81.5198 71.5949 81.3661 71.2205 81.0924 70.9444L75.0745 64.8764C74.9392 64.7392 74.7782 64.6304 74.6009 64.5564C74.4236 64.4824 74.2334 64.4447 74.0415 64.4453Z" fill="white"/>
<path d="M102.812 87.6626C102.334 87.6626 101.876 87.4712 101.538 87.1306C101.2 86.79 101.01 86.328 101.01 85.8462C101.007 82.6597 99.7499 79.6046 97.5149 77.3513C95.28 75.0979 92.2497 73.8303 89.0889 73.8264C88.611 73.8264 88.1527 73.6351 87.8148 73.2944C87.4769 72.9538 87.2871 72.4918 87.2871 72.01C87.2871 71.5283 87.4769 71.0663 87.8148 70.7256C88.1527 70.385 88.611 70.1936 89.0889 70.1936C97.6496 70.1936 104.614 77.2171 104.614 85.8462C104.614 86.328 104.424 86.79 104.086 87.1306C103.748 87.4712 103.29 87.6626 102.812 87.6626Z" fill="white"/>
<path d="M110.428 87.6626C109.95 87.6626 109.492 87.4713 109.154 87.1306C108.816 86.79 108.626 86.328 108.626 85.8462C108.626 74.9853 99.8574 66.1491 89.0889 66.1491C88.611 66.1491 88.1527 65.9577 87.8148 65.6171C87.4769 65.2765 87.2871 64.8144 87.2871 64.3327C87.2871 63.851 87.4769 63.389 87.8148 63.0483C88.1527 62.7077 88.611 62.5163 89.0889 62.5163C101.849 62.5163 112.229 72.9824 112.229 85.8462C112.229 86.328 112.04 86.79 111.702 87.1306C111.364 87.4713 110.906 87.6626 110.428 87.6626Z" fill="white"/>
</g>
<defs>
<filter id="filter0_d_95_88" x="0" y="0" width="180" height="180" filterUnits="userSpaceOnUse" color-interpolation-filters="sRGB">
<feFlood flood-opacity="0" result="BackgroundImageFix"/>
<feColorMatrix in="SourceAlpha" type="matrix" values="0 0 0 0 0 0 0 0 0 0 0 0 0 0 0 0 0 0 127 0" result="hardAlpha"/>
<feOffset dy="4"/>
<feGaussianBlur stdDeviation="20"/>
<feComposite in2="hardAlpha" operator="out"/>
<feColorMatrix type="matrix" values="0 0 0 0 0 0 0 0 0 0 0 0 0 0 0 0 0 0 0.25 0"/>
<feBlend mode="normal" in2="BackgroundImageFix" result="effect1_dropShadow_95_88"/>
<feBlend mode="normal" in="SourceGraphic" in2="effect1_dropShadow_95_88" result="shape"/>
</filter>
<filter id="filter1_d_95_88" x="61.498" y="56.8149" width="56.291" height="56.6846" filterUnits="userSpaceOnUse" color-interpolation-filters="sRGB">
<feFlood flood-opacity="0" result="BackgroundImageFix"/>
<feColorMatrix in="SourceAlpha" type="matrix" values="0 0 0 0 0 0 0 0 0 0 0 0 0 0 0 0 0 0 127 0" result="hardAlpha"/>
<feOffset/>
<feGaussianBlur stdDeviation="2"/>
<feComposite in2="hardAlpha" operator="out"/>
<feColorMatrix type="matrix" values="0 0 0 0 0 0 0 0 0 0 0 0 0 0 0 0 0 0 0.25 0"/>
<feBlend mode="normal" in2="BackgroundImageFix" result="effect1_dropShadow_95_88"/>
<feBlend mode="normal" in="SourceGraphic" in2="effect1_dropShadow_95_88" result="shape"/>
</filter>
<linearGradient id="paint0_linear_95_88" x1="90" y1="36" x2="90" y2="136" gradientUnits="userSpaceOnUse">
<stop stop-color="#FDED09"/>
<stop offset="1" stop-color="#FFCE26"/>
</linearGradient>
</defs>
</svg>
