<svg width="36" height="36" viewBox="0 0 36 36" fill="none" xmlns="http://www.w3.org/2000/svg">
<path d="M36 27.9211C36 32.3859 32.3789 36 27.9211 36H8.07891C3.62109 36 0 32.3789 0 27.9211V8.07891C0 3.62109 3.62109 0 8.07891 0H27.9211C32.3789 0 36 3.62109 36 8.07891V27.9211Z" fill="url(#paint0_linear_95_160)"/>
<path fill-rule="evenodd" clip-rule="evenodd" d="M21.0242 11.5805C21.6289 11.5594 22.2336 11.5735 22.8383 11.5735C22.9086 11.5735 22.9859 11.5735 23.0844 11.5735V8.43049C22.7609 8.39533 22.4234 8.35314 22.0859 8.33908C21.4672 8.31095 20.8484 8.28283 20.2227 8.29689C19.2734 8.31799 18.3805 8.55002 17.6 9.10549C16.7 9.75236 16.2078 10.6594 16.025 11.7281C15.9477 12.1711 15.9266 12.6281 15.9125 13.0781C15.8984 13.7813 15.9125 14.4844 15.9125 15.1945V15.4617H12.9102V18.9703H15.8984V27.7875H19.5477V18.9774H22.5289C22.6836 17.8102 22.8312 16.657 22.9859 15.4547C22.7469 15.4547 22.5289 15.4547 22.318 15.4547C21.4672 15.4617 19.5266 15.4547 19.5266 15.4547C19.5266 15.4547 19.5336 13.718 19.5547 12.9586C19.5828 11.925 20.2016 11.6086 21.0242 11.5805Z" fill="white"/>
<defs>
<linearGradient id="paint0_linear_95_160" x1="18" y1="0" x2="18" y2="36" gradientUnits="userSpaceOnUse">
<stop stop-color="#FDE610"/>
<stop offset="1" stop-color="#FFD123"/>
</linearGradient>
</defs>
</svg>
