<svg width="38" height="38" viewBox="0 0 38 38" fill="none" xmlns="http://www.w3.org/2000/svg">
<path d="M18.8897 9.37036C13.7045 9.37036 9.4082 13.5926 9.4082 18.8518C9.4082 24.1111 13.6304 28.3333 18.8897 28.3333C24.1489 28.3333 28.3712 24.037 28.3712 18.8518C28.3712 13.6667 24.0749 9.37036 18.8897 9.37036ZM18.8897 24.9259C15.5564 24.9259 12.8156 22.1852 12.8156 18.8518C12.8156 15.5185 15.5564 12.7778 18.8897 12.7778C22.223 12.7778 24.9638 15.5185 24.9638 18.8518C24.9638 22.1852 22.223 24.9259 18.8897 24.9259Z" fill="#FDE610"/>
<path d="M28.7419 11.2963C29.9283 11.2963 30.89 10.3345 30.89 9.14815C30.89 7.96176 29.9283 7 28.7419 7C27.5555 7 26.5938 7.96176 26.5938 9.14815C26.5938 10.3345 27.5555 11.2963 28.7419 11.2963Z" fill="#FDE610"/>
<path d="M34.2973 3.59258C32.3714 1.59258 29.6306 0.555542 26.5195 0.555542H11.2603C4.81583 0.555542 0.519531 4.85184 0.519531 11.2963V26.4815C0.519531 29.6667 1.55657 32.4074 3.63064 34.4074C5.63064 36.3333 8.29731 37.2963 11.3343 37.2963H26.4455C29.6306 37.2963 32.2973 36.2592 34.2232 34.4074C36.2232 32.4815 37.2603 29.7407 37.2603 26.5555V11.2963C37.2603 8.18517 36.2232 5.5185 34.2973 3.59258ZM34.001 26.5555C34.001 28.8518 33.1862 30.7037 31.8529 31.9629C30.5195 33.2222 28.6677 33.8889 26.4455 33.8889H11.3343C9.11212 33.8889 7.26027 33.2222 5.92694 31.9629C4.59361 30.6296 3.92694 28.7778 3.92694 26.4815V11.2963C3.92694 9.07406 4.59361 7.22221 5.92694 5.88888C7.1862 4.62962 9.11212 3.96295 11.3343 3.96295H26.5936C28.8158 3.96295 30.6677 4.62962 32.001 5.96295C33.2603 7.29628 34.001 9.14813 34.001 11.2963V26.5555Z" fill="#FDE610"/>
</svg>
