<svg width="223" height="106" viewBox="0 0 223 106" fill="none" xmlns="http://www.w3.org/2000/svg">
<g filter="url(#filter0_b_125_10)">
<ellipse cx="111.5" cy="53" rx="111.5" ry="53" fill="#D5D1CA" fill-opacity="0.9"/>
</g>
<g filter="url(#filter1_d_125_10)">
<path d="M52.9334 53.3584C54.2534 53.7764 55.2874 54.4804 56.0354 55.4704C56.7834 56.4384 57.1574 57.6374 57.1574 59.0674C57.1574 61.0914 56.3654 62.6534 54.7814 63.7534C53.2194 64.8314 50.9314 65.3704 47.9174 65.3704H35.9714V42.2704H47.2574C50.0734 42.2704 52.2294 42.8094 53.7254 43.8874C55.2434 44.9654 56.0024 46.4284 56.0024 48.2764C56.0024 49.3984 55.7274 50.3994 55.1774 51.2794C54.6494 52.1594 53.9014 52.8524 52.9334 53.3584ZM41.2844 46.2964V51.7414H46.5974C47.9174 51.7414 48.9184 51.5104 49.6004 51.0484C50.2824 50.5864 50.6234 49.9044 50.6234 49.0024C50.6234 48.1004 50.2824 47.4294 49.6004 46.9894C48.9184 46.5274 47.9174 46.2964 46.5974 46.2964H41.2844ZM47.5214 61.3444C48.9294 61.3444 49.9854 61.1134 50.6894 60.6514C51.4154 60.1894 51.7784 59.4744 51.7784 58.5064C51.7784 56.5924 50.3594 55.6354 47.5214 55.6354H41.2844V61.3444H47.5214ZM72.3918 65.7664C69.9938 65.7664 67.8268 65.2494 65.8908 64.2154C63.9768 63.1814 62.4698 61.7624 61.3698 59.9584C60.2918 58.1324 59.7528 56.0864 59.7528 53.8204C59.7528 51.5544 60.2918 49.5194 61.3698 47.7154C62.4698 45.8894 63.9768 44.4594 65.8908 43.4254C67.8268 42.3914 69.9938 41.8744 72.3918 41.8744C74.7898 41.8744 76.9458 42.3914 78.8598 43.4254C80.7738 44.4594 82.2808 45.8894 83.3808 47.7154C84.4808 49.5194 85.0308 51.5544 85.0308 53.8204C85.0308 56.0864 84.4808 58.1324 83.3808 59.9584C82.2808 61.7624 80.7738 63.1814 78.8598 64.2154C76.9458 65.2494 74.7898 65.7664 72.3918 65.7664ZM72.3918 61.2124C73.7558 61.2124 74.9878 60.9044 76.0878 60.2884C77.1878 59.6504 78.0458 58.7704 78.6618 57.6484C79.2998 56.5264 79.6188 55.2504 79.6188 53.8204C79.6188 52.3904 79.2998 51.1144 78.6618 49.9924C78.0458 48.8704 77.1878 48.0014 76.0878 47.3854C74.9878 46.7474 73.7558 46.4284 72.3918 46.4284C71.0278 46.4284 69.7958 46.7474 68.6958 47.3854C67.5958 48.0014 66.7268 48.8704 66.0888 49.9924C65.4728 51.1144 65.1648 52.3904 65.1648 53.8204C65.1648 55.2504 65.4728 56.5264 66.0888 57.6484C66.7268 58.7704 67.5958 59.6504 68.6958 60.2884C69.7958 60.9044 71.0278 61.2124 72.3918 61.2124ZM101.292 41.8744C104.042 41.8744 106.187 42.7434 107.727 44.4814C109.267 46.1974 110.037 48.6504 110.037 51.8404V65.3704H104.691V52.0054C104.691 50.1574 104.251 48.7714 103.371 47.8474C102.513 46.9014 101.314 46.4284 99.7736 46.4284C98.1456 46.4284 96.8366 46.9344 95.8466 47.9464C94.8786 48.9364 94.3946 50.4104 94.3946 52.3684V65.3704H89.0486V42.2704H94.2296V45.0754C95.0216 44.0194 96.0116 43.2274 97.1996 42.6994C98.3876 42.1494 99.7516 41.8744 101.292 41.8744Z" fill="#FFC330"/>
<path d="M121.319 65.6344C119.317 65.6344 117.755 65.1064 116.633 64.0504C115.511 62.9724 114.95 61.4544 114.95 59.4964V40.8844H120.098V59.1994C120.098 59.9474 120.285 60.5304 120.659 60.9484C121.055 61.3444 121.605 61.5424 122.309 61.5424C122.573 61.5424 122.837 61.5094 123.101 61.4434C123.387 61.3774 123.607 61.3004 123.761 61.2124L123.992 65.2054C123.134 65.4914 122.243 65.6344 121.319 65.6344ZM126.52 47.6164H131.668V65.3704H126.52V47.6164ZM129.094 45.1414C128.148 45.1414 127.378 44.8664 126.784 44.3164C126.19 43.7664 125.893 43.0844 125.893 42.2704C125.893 41.4564 126.19 40.7744 126.784 40.2244C127.378 39.6744 128.148 39.3994 129.094 39.3994C130.04 39.3994 130.81 39.6634 131.404 40.1914C131.998 40.7194 132.295 41.3794 132.295 42.1714C132.295 43.0294 131.998 43.7444 131.404 44.3164C130.81 44.8664 130.04 45.1414 129.094 45.1414ZM147.236 47.3524C149.436 47.3524 151.207 48.0124 152.549 49.3324C153.913 50.6524 154.595 52.6104 154.595 55.2064V65.3704H149.447V55.9984C149.447 54.5904 149.139 53.5454 148.523 52.8634C147.907 52.1594 147.016 51.8074 145.85 51.8074C144.552 51.8074 143.518 52.2144 142.748 53.0284C141.978 53.8204 141.593 55.0084 141.593 56.5924V65.3704H136.445V47.6164H141.362V49.6954C142.044 48.9474 142.891 48.3754 143.903 47.9794C144.915 47.5614 146.026 47.3524 147.236 47.3524ZM168.398 61.5094C169.322 61.5094 170.136 61.3774 170.84 61.1134C171.566 60.8274 172.237 60.3874 172.853 59.7934L175.592 62.7634C173.92 64.6774 171.478 65.6344 168.266 65.6344C166.264 65.6344 164.493 65.2494 162.953 64.4794C161.413 63.6874 160.225 62.5984 159.389 61.2124C158.553 59.8264 158.135 58.2534 158.135 56.4934C158.135 54.7554 158.542 53.1934 159.356 51.8074C160.192 50.3994 161.325 49.3104 162.755 48.5404C164.207 47.7484 165.835 47.3524 167.639 47.3524C169.333 47.3524 170.873 47.7154 172.259 48.4414C173.645 49.1454 174.745 50.1794 175.559 51.5434C176.395 52.8854 176.813 54.4804 176.813 56.3284L163.679 58.8694C164.053 59.7494 164.636 60.4094 165.428 60.8494C166.242 61.2894 167.232 61.5094 168.398 61.5094ZM167.639 51.2464C166.341 51.2464 165.285 51.6644 164.471 52.5004C163.657 53.3364 163.228 54.4914 163.184 55.9654L171.83 54.2824C171.588 53.3584 171.093 52.6214 170.345 52.0714C169.597 51.5214 168.695 51.2464 167.639 51.2464Z" fill="white"/>
</g>
<g filter="url(#filter2_d_125_10)">
<path d="M178.353 31.7871C177.753 31.4405 177.11 31.2171 176.423 31.1171V36.8271H174.803V31.1171C174.116 31.2171 173.47 31.4405 172.863 31.7871L172.313 30.5771C172.793 30.2905 173.313 30.0738 173.873 29.9271C174.433 29.7805 175.01 29.7071 175.603 29.7071C176.203 29.7071 176.783 29.7805 177.343 29.9271C177.91 30.0738 178.43 30.2905 178.903 30.5771L178.353 31.7871ZM187.62 29.7071C188.446 29.7071 189.09 29.9505 189.55 30.4371C190.01 30.9171 190.24 31.6138 190.24 32.5271V36.8271H188.62V32.5771C188.62 32.0838 188.49 31.7138 188.23 31.4671C187.976 31.2138 187.64 31.0871 187.22 31.0871C186.76 31.0871 186.393 31.2205 186.12 31.4871C185.846 31.7471 185.71 32.1438 185.71 32.6771V36.8271H184.09V32.5771C184.09 32.0838 183.97 31.7138 183.73 31.4671C183.49 31.2138 183.163 31.0871 182.75 31.0871C182.296 31.0871 181.933 31.2205 181.66 31.4871C181.386 31.7471 181.25 32.1438 181.25 32.6771V36.8271H179.63V29.8271H181.2V30.6871C181.413 30.3738 181.696 30.1338 182.05 29.9671C182.403 29.7938 182.81 29.7071 183.27 29.7071C183.75 29.7071 184.17 29.7971 184.53 29.9771C184.89 30.1505 185.166 30.4038 185.36 30.7371C185.6 30.4038 185.913 30.1505 186.3 29.9771C186.693 29.7971 187.133 29.7071 187.62 29.7071Z" fill="#FFC330"/>
</g>
<defs>
<filter id="filter0_b_125_10" x="-4" y="-4" width="231" height="114" filterUnits="userSpaceOnUse" color-interpolation-filters="sRGB">
<feFlood flood-opacity="0" result="BackgroundImageFix"/>
<feGaussianBlur in="BackgroundImage" stdDeviation="2"/>
<feComposite in2="SourceAlpha" operator="in" result="effect1_backgroundBlur_125_10"/>
<feBlend mode="normal" in="SourceGraphic" in2="effect1_backgroundBlur_125_10" result="shape"/>
</filter>
<filter id="filter1_d_125_10" x="31.9717" y="39.3994" width="148.842" height="34.367" filterUnits="userSpaceOnUse" color-interpolation-filters="sRGB">
<feFlood flood-opacity="0" result="BackgroundImageFix"/>
<feColorMatrix in="SourceAlpha" type="matrix" values="0 0 0 0 0 0 0 0 0 0 0 0 0 0 0 0 0 0 127 0" result="hardAlpha"/>
<feOffset dy="4"/>
<feGaussianBlur stdDeviation="2"/>
<feComposite in2="hardAlpha" operator="out"/>
<feColorMatrix type="matrix" values="0 0 0 0 0 0 0 0 0 0 0 0 0 0 0 0 0 0 0.25 0"/>
<feBlend mode="normal" in2="BackgroundImageFix" result="effect1_dropShadow_125_10"/>
<feBlend mode="normal" in="SourceGraphic" in2="effect1_dropShadow_125_10" result="shape"/>
</filter>
<filter id="filter2_d_125_10" x="168.312" y="29.7072" width="25.9277" height="15.12" filterUnits="userSpaceOnUse" color-interpolation-filters="sRGB">
<feFlood flood-opacity="0" result="BackgroundImageFix"/>
<feColorMatrix in="SourceAlpha" type="matrix" values="0 0 0 0 0 0 0 0 0 0 0 0 0 0 0 0 0 0 127 0" result="hardAlpha"/>
<feOffset dy="4"/>
<feGaussianBlur stdDeviation="2"/>
<feComposite in2="hardAlpha" operator="out"/>
<feColorMatrix type="matrix" values="0 0 0 0 0 0 0 0 0 0 0 0 0 0 0 0 0 0 0.25 0"/>
<feBlend mode="normal" in2="BackgroundImageFix" result="effect1_dropShadow_125_10"/>
<feBlend mode="normal" in="SourceGraphic" in2="effect1_dropShadow_125_10" result="shape"/>
</filter>
</defs>
</svg>
