<svg width="443" height="61" viewBox="0 0 443 61" fill="none" xmlns="http://www.w3.org/2000/svg">
<g clip-path="url(#clip0_127_1219)" filter="url(#filter0_d_127_1219)">
<path fill-rule="evenodd" clip-rule="evenodd" d="M413.675 39.6882L417.904 45.3917C419.845 47.1896 418.601 49.7807 416.561 50.3393C416.113 50.4708 415.815 50.682 415.815 51.0153V51.743L439 51.7378V50.9304C439 50.7051 438.901 50.4376 438.652 50.3484C438.503 50.3108 438.353 50.2733 438.204 50.2264C435.816 49.48 433.776 48.3486 431.836 45.9875L420.492 31.8627L425.567 25.9011C428.9 22.3569 433.129 19.9395 435.617 19.456C436.114 19.362 436.214 19.1508 436.214 18.7471V18.1134H435.418L422.333 18.1178H421.586C421.586 18.1178 421.586 18.4558 421.586 18.7469C421.586 19.1036 421.735 19.3383 422.034 19.4885C422.134 19.5636 422.134 19.5683 422.233 19.634C423.228 20.2021 424.074 21.7183 421.835 24.1827C421.835 24.239 420.243 26.0885 417.954 28.6797V28.6421L414.67 24.4549C412.68 22.6055 414.073 19.8922 416.163 19.4462C416.661 19.357 416.76 19.1505 416.76 18.7468V18.1084L415.964 18.1127H394.122C394.122 18.1127 394.072 18.4554 394.072 18.7465C394.072 19.2581 394.47 19.5162 394.968 19.643C397.306 20.3847 399.346 21.516 401.287 23.8584L411.138 36.467L404.769 43.7195C401.436 47.2214 398.6 49.8689 396.311 50.343C395.814 50.4416 395.565 50.681 395.565 51.0143V51.7419L408.999 51.7368V50.9482C408.999 50.7182 408.899 50.4881 408.65 50.3614C408.451 50.2909 408.352 50.2535 408.252 50.1737C407.307 49.5728 406.561 48.0706 408.75 45.6672C408.75 45.6156 411.387 42.2404 413.675 39.6492V39.6868" fill="white"/>
<path d="M120.972 10.9076C119.778 8.20375 116.693 7.05371 113.409 7.05371H100.075V23.8965L110.573 23.9199C114.156 23.9199 117.39 23.2956 118.036 20.7513C118.086 20.4509 118.335 20.2303 118.633 20.2256L119.23 20.2299V32.0921L118.633 32.0964C118.335 32.1008 118.136 31.8429 117.987 31.505C117.141 29.3128 113.956 28.2566 110.573 28.2566H100.075V41.7571C100.075 45.78 101.617 46.8691 105.896 46.8691H113.409C116.942 46.8691 120.872 45.2355 122.216 42.0622C122.315 41.8228 122.514 41.7054 122.813 41.7054H123.31V51.7041H83.6562V51.0562C83.6562 50.723 83.905 50.4178 84.4025 50.3803C86.8405 50.2113 88.7312 47.8267 88.7312 44.1558V9.51739C88.7312 5.85123 86.8405 3.45254 84.4025 3.27883C83.905 3.24122 83.6562 2.93613 83.6562 2.6029V1.95508H122.066V11.2683H121.569C121.32 11.259 121.071 11.1087 120.972 10.9069" fill="white"/>
<path d="M147.292 51.7047L147.342 51.0569C147.342 50.7236 147.093 50.4184 146.545 50.3809C144.157 50.2119 142.217 47.7991 142.217 44.1329V8.21307C142.217 5.4529 142.217 0.00292969 142.217 0.00292969L126.893 1.95573V2.60355C126.893 2.93677 127.141 3.24186 127.639 3.27944C130.077 3.45315 131.967 5.8378 131.967 9.50397C131.967 9.41943 132.017 44.147 132.017 44.147C132.017 47.8085 130.077 50.2119 127.689 50.3809C127.141 50.4184 126.893 50.7236 126.893 51.0569L126.942 51.7047H147.292" fill="white"/>
<path d="M350.29 51.7047L350.339 51.0569C350.339 50.7236 350.091 50.4184 349.543 50.3809C347.155 50.2119 345.215 47.7991 345.215 44.1329V8.21307C345.215 5.4529 345.215 0.00292969 345.215 0.00292969L329.891 1.95573V2.60355C329.891 2.93677 330.139 3.24186 330.637 3.27944C333.025 3.45315 334.966 5.8378 334.966 9.50397C334.966 9.41943 335.015 44.147 335.015 44.147C335.015 47.8085 333.075 50.2119 330.687 50.3809C330.139 50.4184 329.891 50.7236 329.891 51.0569V51.7047H350.29" fill="white"/>
<path d="M271.627 17.5213C271.627 17.5213 271.627 22.2717 271.627 25.0366C273.219 22.267 276.354 16.8828 283.12 16.8828C284.364 16.8828 285.359 17.1363 286.056 17.3804L283.22 26.6373C282.872 26.6373 280.235 26.6373 278.891 26.6373C274.513 26.6373 271.777 29.313 271.777 32.6083V44.1279C271.777 47.794 273.717 50.2115 276.105 50.3805C276.652 50.418 276.901 50.7232 276.851 51.0564V51.7043H256.602V51.0564C256.602 50.7232 256.85 50.418 257.398 50.3805C259.786 50.2115 261.726 47.8034 261.726 44.1373C261.726 41.4521 261.726 30.2331 261.726 27.0128C261.726 23.3514 260.084 21.1451 257.398 20.7884C257 20.7414 256.602 20.3284 256.602 19.9715C256.602 19.6148 256.602 19.4693 256.602 19.4693L271.627 17.5213Z" fill="white"/>
<path d="M393.375 51.7377H384.021C380.837 51.7377 379.892 49.8507 379.892 48.2781C375.762 51.2496 372.777 52.5217 367.403 52.7001C361.383 52.8784 355.861 49.3531 355.861 43.0394L355.811 27.0369C355.811 23.3661 353.87 20.9815 351.482 20.8078C350.985 20.7701 350.686 20.465 350.736 20.1365V19.484L366.408 17.5312V38.3405C366.408 47.6444 376.11 46.6539 379.892 44.0299V27.0275C379.892 23.3614 377.951 20.9815 375.563 20.8078C375.016 20.7701 374.767 20.465 374.767 20.1365V19.484L390.44 17.5312V44.0956C390.44 46.9638 391.037 49.9164 393.425 50.3952C393.823 50.475 394.121 50.6393 394.121 51.1604C394.121 51.4373 394.121 51.7377 394.121 51.7377H393.375" fill="white"/>
<path d="M223.665 28.0599V19.3146C223.665 19.3146 218.291 17.0098 209.634 17.0098C198.34 17.0098 190.528 22.4081 190.429 35.5142C190.329 45.8696 196.748 52.7982 209.186 52.7982C217.396 52.7982 222.172 48.9725 223.913 47.4327C225.008 46.6629 225.008 45.9682 225.008 45.0904C225.008 44.2125 225.058 42.6682 225.058 42.6682C221.724 44.9495 217.197 46.5173 212.818 46.5173C203.813 46.5173 201.176 40.5041 201.176 33.8337C201.176 31.0829 202.121 21.6993 210.53 21.6101C215.953 21.6101 219.038 23.1544 222.222 28.1631C222.769 28.9236 223.117 29.0879 223.665 28.9799V28.0599" fill="white"/>
<path d="M307.351 21.5394C300.634 21.5394 298.744 26.4965 298.744 34.2935C298.744 40.579 298.843 48.4606 307.451 48.4606C315.71 48.2822 315.61 41.7244 315.61 34.5565C315.61 26.1867 313.421 21.5864 307.351 21.5394ZM306.754 16.8406C315.461 16.7091 327.303 18.7839 327.402 34.2043C327.402 46.2402 322.626 52.798 306.903 52.798C296.007 52.798 287.151 50.4884 287.151 34.9976C287.051 19.244 299.241 16.9344 306.754 16.8452V16.8409" fill="white"/>
<path d="M185.902 33.6747H161.075C160.577 44.2976 166.697 46.4194 172.618 46.5086C177.643 46.5086 181.474 44.8845 184.758 42.711C184.758 42.711 184.758 44.8516 184.758 45.4008C184.758 45.9547 184.459 46.3913 184.31 46.6541C182.071 49.4988 176.349 52.8035 168.488 52.8035C157.741 52.8035 150.229 47.5789 150.229 35.6228C150.229 22.4885 157.94 17.0808 168.687 17.0244C179.782 17.0244 185.504 21.958 185.902 32.7171V33.6747ZM168.588 20.9206C165.155 21.099 162.02 22.512 161.075 29.511H175.752C175.852 22.3336 172.021 21.099 168.488 20.9206H168.588Z" fill="white"/>
<path d="M253.02 19.6668V18.1365H241.576V8.14258L226.451 22.9246H231.277V42.5228C231.277 45.865 232.372 52.911 242.372 53.0002C246.801 53.0002 249.935 51.5075 252.373 49.4842C253.269 48.7989 253.269 48.3624 253.318 47.6817C253.368 47.0949 253.318 46.4095 253.318 45.2595C247 48.6206 241.576 46.5081 241.576 39.988V22.9246H249.686C251.278 22.6804 253.02 21.859 253.02 19.6668Z" fill="white"/>
<path fill-rule="evenodd" clip-rule="evenodd" d="M58.1823 1.0498H4V52.146H58.1823V1.0498ZM38.2308 49.2497V3.94135C48.5797 6.833 56.1423 15.9397 56.1423 26.5814C56.1423 37.2607 48.5797 46.3252 38.2308 49.2497ZM6.08967 25.4924C6.6867 12.9542 17.6824 2.97911 31.116 2.97911C32.7082 2.97911 34.3002 3.12465 35.8427 3.40626C35.8427 15.6674 25.3446 25.4924 12.3089 25.4924H6.08967ZM12.3089 27.6986C25.3446 27.6986 35.8427 37.5048 35.8427 49.7895C34.3002 50.0665 32.7082 50.2119 31.116 50.2119C17.6824 50.2119 6.6867 40.2369 6.08967 27.6986H12.3089Z" fill="white"/>
</g>
<defs>
<filter id="filter0_d_127_1219" x="0" y="0" width="443" height="61" filterUnits="userSpaceOnUse" color-interpolation-filters="sRGB">
<feFlood flood-opacity="0" result="BackgroundImageFix"/>
<feColorMatrix in="SourceAlpha" type="matrix" values="0 0 0 0 0 0 0 0 0 0 0 0 0 0 0 0 0 0 127 0" result="hardAlpha"/>
<feOffset dy="4"/>
<feGaussianBlur stdDeviation="2"/>
<feComposite in2="hardAlpha" operator="out"/>
<feColorMatrix type="matrix" values="0 0 0 0 0 0 0 0 0 0 0 0 0 0 0 0 0 0 0.25 0"/>
<feBlend mode="normal" in2="BackgroundImageFix" result="effect1_dropShadow_127_1219"/>
<feBlend mode="normal" in="SourceGraphic" in2="effect1_dropShadow_127_1219" result="shape"/>
</filter>
<clipPath id="clip0_127_1219">
<rect width="435" height="53" fill="white" transform="translate(4)"/>
</clipPath>
</defs>
</svg>
