<svg width="49" height="37" viewBox="0 0 49 37" fill="none" xmlns="http://www.w3.org/2000/svg">
<path d="M17.0073 0.957623C15.3533 0.957623 13.7701 1.25173 12.2925 1.77168C12.9137 1.69509 13.5429 1.64244 14.1841 1.64244C22.6897 1.64243 29.6419 8.58017 29.6563 17.086C29.6563 17.0871 29.6563 17.0882 29.6563 17.0893V25.5068C30.2146 24.526 30.7998 23.4956 31.2609 22.697C31.3351 22.5677 31.3744 22.4214 31.375 22.2724V15.3C31.3617 7.38459 24.9228 0.95751 17.0073 0.95752V0.957623ZM14.1841 3.36119C6.60041 3.36119 0.4375 9.53081 0.4375 17.1145C0.4375 24.6983 6.60041 30.8612 14.1841 30.8612C14.1864 30.8612 14.1887 30.8612 14.1909 30.8612C17.6244 30.8505 21.92 30.8612 25.153 30.8612C26.6274 30.8612 27.9376 29.7652 27.9376 28.2998V17.0894C27.9249 9.51467 21.759 3.36118 14.1843 3.36119H14.1841ZM13.7612 11.1879C17.3106 11.1879 20.2065 14.0837 20.2065 17.6332C20.2065 21.1827 17.3106 24.0785 13.7612 24.0785C10.2117 24.0785 7.31586 21.1827 7.31586 17.6332C7.31586 14.0837 10.2117 11.1879 13.7612 11.1879ZM13.7612 12.9066C11.1406 12.9066 9.03461 15.0126 9.03461 17.6332C9.03461 20.2538 11.1406 22.3598 13.7612 22.3598C16.3818 22.3598 18.4861 20.2538 18.4861 17.6332C18.4861 15.0126 16.3818 12.9066 13.7612 12.9066ZM33.0887 22.3614C33.0738 22.7799 32.96 23.1896 32.7513 23.5531C32.7508 23.5543 32.7502 23.5554 32.7496 23.5564C31.6135 25.5163 30.6741 27.2152 29.5438 29.2514C29.9243 29.2582 31.0861 29.2504 31.7291 29.2531L34.4667 24.5098C34.5347 24.3875 34.6316 24.2836 34.7489 24.2073C34.8662 24.131 35.0004 24.0844 35.1398 24.0717C35.1677 24.0693 35.1957 24.0682 35.2237 24.0685C35.3749 24.0695 35.5231 24.1104 35.6534 24.1871C35.7837 24.2637 35.8915 24.3733 35.9659 24.5049C36.0403 24.6365 36.0787 24.7854 36.0771 24.9366C36.0756 25.0878 36.0342 25.2358 35.9572 25.3659L33.708 29.2566C34.5986 29.2564 35.1451 29.2611 36.1368 29.2583L37.3906 27.0864C37.4586 26.9641 37.5555 26.8602 37.6728 26.7839C37.7901 26.7075 37.9243 26.661 38.0637 26.6483C38.0955 26.6454 38.1274 26.6444 38.1593 26.6451C38.3105 26.6475 38.4584 26.6897 38.588 26.7675C38.7176 26.8453 38.8244 26.956 38.8976 27.0882C38.9709 27.2205 39.0079 27.3698 39.005 27.521C39.002 27.6721 38.9593 27.8199 38.8811 27.9492L38.1241 29.2568C39.1356 29.2529 39.6893 29.2503 40.5595 29.2467L43.2904 24.5101C43.3584 24.3878 43.4553 24.2839 43.5726 24.2076C43.6899 24.1312 43.8241 24.0847 43.9634 24.072C43.9914 24.0696 44.0194 24.0685 44.0474 24.0688C44.1985 24.0698 44.3468 24.1107 44.4771 24.1873C44.6074 24.264 44.7152 24.3736 44.7896 24.5052C44.864 24.6368 44.9023 24.7857 44.9008 24.9369C44.8993 25.0881 44.8579 25.2361 44.7809 25.3662L42.5418 29.2401C43.0035 29.2384 43.991 29.2336 44.2656 29.2332C44.572 29.2323 44.8546 29.0865 45.0075 28.8505L48.4466 23.5063C48.7758 22.998 48.3645 22.3637 47.7048 22.3616L33.0887 22.3614ZM48.5608 26.5039L46.4527 29.7803C46.4516 29.782 46.4505 29.7837 46.4494 29.7854C45.9466 30.5616 45.1192 30.9494 44.2708 30.952C44.2697 30.952 44.2686 30.952 44.2675 30.952C44.1309 30.9521 43.5903 30.9548 43.4031 30.9552V35.1715C43.3924 36.088 44.6319 36.3826 45.0346 35.5593L48.4721 28.6826C48.5307 28.5641 48.5611 28.4337 48.5611 28.3016L48.5608 26.5039Z" fill="black" fill-opacity="0.17"/>
</svg>
