<svg width="138" height="128" viewBox="0 0 138 128" fill="none" xmlns="http://www.w3.org/2000/svg">
<path d="M98.9288 36V90.4H57.27C57.0996 87.9454 55.9283 85.6431 53.9939 83.9607C52.0595 82.2783 49.5071 81.3419 46.8553 81.3419C44.2035 81.3419 41.6512 82.2783 39.7168 83.9607C37.7824 85.6431 36.611 87.9454 36.4406 90.4H25.875V36H98.9288Z" stroke="white" stroke-width="2" stroke-linecap="round" stroke-linejoin="round"/>
<path d="M133.688 71.2V90.4H126.745C126.575 87.9454 125.404 85.6431 123.469 83.9607C121.535 82.2783 118.982 81.3419 116.331 81.3419C113.679 81.3419 111.126 82.2783 109.192 83.9607C107.258 85.6431 106.086 87.9454 105.916 90.4H98.9297V52H113.463L133.688 71.2Z" stroke="white" stroke-width="2" stroke-linecap="round" stroke-linejoin="round"/>
<path d="M133.688 71.1992V90.3992H126.745C126.575 87.9447 125.404 85.6423 123.469 83.9599C121.535 82.2775 118.982 81.3412 116.331 81.3412C113.679 81.3412 111.126 82.2775 109.192 83.9599C107.258 85.6423 106.086 87.9447 105.916 90.3992H98.9297V71.1992H133.688Z" stroke="white" stroke-width="2" stroke-linecap="round" stroke-linejoin="round"/>
<path d="M46.8347 100.001C52.5985 100.001 57.2709 95.7027 57.2709 90.4008C57.2709 85.0988 52.5985 80.8008 46.8347 80.8008C41.0709 80.8008 36.3984 85.0988 36.3984 90.4008C36.3984 95.7027 41.0709 100.001 46.8347 100.001Z" stroke="white" stroke-width="2" stroke-linecap="round" stroke-linejoin="round"/>
<path d="M116.307 100.001C122.071 100.001 126.744 95.7027 126.744 90.4008C126.744 85.0988 122.071 80.8008 116.307 80.8008C110.544 80.8008 105.871 85.0988 105.871 90.4008C105.871 95.7027 110.544 100.001 116.307 100.001Z" stroke="white" stroke-width="2" stroke-linecap="round" stroke-linejoin="round"/>
<path d="M4.3125 42.4004H15.5681" stroke="white" stroke-width="2" stroke-linecap="round" stroke-linejoin="round"/>
<path d="M4.3125 55.1992H15.5681" stroke="white" stroke-width="2" stroke-linecap="round" stroke-linejoin="round"/>
<path d="M4.3125 68H15.5681" stroke="white" stroke-width="2" stroke-linecap="round" stroke-linejoin="round"/>
</svg>
