<svg width="108" height="114" viewBox="0 0 108 114" fill="none" xmlns="http://www.w3.org/2000/svg">
<path d="M96.8941 33.2537L89.1675 25.0978C88.7372 24.6436 88.1656 24.3942 87.5581 24.3942C86.9506 24.3942 86.3789 24.6436 85.9486 25.0978L81.1308 30.1833L64.1735 12.2839C64.1377 12.2461 64.0976 12.2127 64.0573 12.1838C64.0446 12.1748 64.0322 12.1682 64.0193 12.1593C63.9877 12.1392 63.956 12.1214 63.9223 12.1058C63.9096 12.0991 63.897 12.0925 63.8822 12.0858C63.8381 12.068 63.7915 12.0524 63.7453 12.0413C63.7453 12.0413 63.743 12.0413 63.7409 12.0413C63.6926 12.0301 63.6441 12.0257 63.5934 12.0257C63.5871 12.0257 63.5827 12.0234 63.5766 12.0234H17.0585C13.4093 12.0234 10.4414 15.1562 10.4414 19.0082V94.9918C10.4414 98.8438 13.4093 101.977 17.0585 101.977H75.4587C79.1077 101.977 82.0777 98.8438 82.0777 94.9918V52.2864L91.4161 42.4294L96.892 36.6492C97.7801 35.7118 97.7801 34.1889 96.8941 33.2537ZM64.4203 15.0649L79.1965 30.662H67.3081C65.7155 30.662 64.4205 29.2927 64.4205 27.6116V15.0649H64.4203ZM80.3902 94.9918C80.3902 97.8619 78.1777 100.195 75.4587 100.195H17.0585C14.3395 100.195 12.1289 97.8619 12.1289 94.9918V19.0082C12.1289 16.1381 14.3395 13.8047 17.0585 13.8047H62.7328V27.6116C62.7328 30.2768 64.785 32.4432 67.3078 32.4432H78.9919L49.4754 63.5998C49.3362 63.7465 49.2159 63.9182 49.1105 64.123C49.1041 64.1341 49.0957 64.143 49.0894 64.1542C49.062 64.2032 49.024 64.2766 48.9966 64.3523C48.9776 64.3971 48.948 64.4614 48.9227 64.5463L46.208 73.1473C46.208 73.1519 46.2059 73.1564 46.2038 73.1608L45.0626 76.7723C44.8896 77.3201 44.9086 77.8923 45.1005 78.4068C45.1048 78.4133 45.1048 78.4222 45.109 78.4291C45.1364 78.5004 45.168 78.5694 45.2039 78.6382C45.2102 78.6538 45.2166 78.6696 45.225 78.6852C45.2566 78.7473 45.2946 78.8052 45.3326 78.8631C45.3452 78.8855 45.3558 78.9078 45.3705 78.9279C45.3705 78.9301 45.3706 78.9301 45.3727 78.9301C45.4106 78.988 45.4549 79.0392 45.4971 79.0926C45.5119 79.1127 45.5266 79.1327 45.5435 79.1527C45.5878 79.204 45.6342 79.2485 45.6806 79.293C45.7017 79.313 45.7186 79.3331 45.7376 79.3509C45.784 79.3932 45.8346 79.4311 45.8831 79.4689C45.9063 79.4867 45.9274 79.5068 45.9506 79.5246C45.997 79.5557 46.0434 79.5825 46.092 79.6114C46.1215 79.6292 46.151 79.6517 46.1805 79.6671C46.2227 79.6896 46.2649 79.7074 46.3071 79.7274C46.3451 79.7452 46.3852 79.7653 46.4252 79.7831C46.4484 79.7918 46.4738 79.7987 46.497 79.8053C46.7269 79.8877 46.9673 79.9345 47.2141 79.9345C47.4588 79.9345 47.7035 79.8924 47.9398 79.8096L59.5223 75.7327C59.5814 75.7127 59.6426 75.686 59.7059 75.6546C59.7459 75.6392 59.7839 75.6192 59.8198 75.6014L59.843 75.5902C59.8493 75.5858 59.8556 75.5813 59.862 75.5767C59.8664 75.5744 59.8725 75.5722 59.8765 75.5702C59.8934 75.5611 59.9081 75.5477 59.925 75.5388C59.9419 75.5277 59.9609 75.5165 59.9756 75.5054C60.136 75.4054 60.2857 75.2897 60.4165 75.1514L80.39 54.0683V94.9918H80.3902ZM47.9693 73.2005L50.1757 66.2135L57.9403 74.4095L51.3232 76.7409L47.9693 73.2005ZM49.5323 77.3686L47.4061 78.1165C47.3112 78.1499 47.2141 78.1586 47.1234 78.1432C46.9737 78.1165 46.8345 78.0272 46.7395 77.8874C46.7311 77.8738 46.7227 77.8604 46.7142 77.8451C46.7079 77.8339 46.6995 77.8206 46.6931 77.8048C46.6931 77.8025 46.691 77.8003 46.6889 77.7983C46.6657 77.7471 46.6446 77.6825 46.6362 77.6091C46.6362 77.6044 46.6362 77.6022 46.6341 77.5977C46.6341 77.5821 46.6341 77.5643 46.632 77.5465V77.5133C46.632 77.5066 46.6341 77.5 46.6341 77.4908C46.6383 77.4421 46.6467 77.3909 46.6657 77.3352L47.3745 75.0908L49.5323 77.3686ZM82.0777 49.7681L80.3902 51.5494L59.5287 73.5679L50.973 64.5367L80.3902 33.4853L81.0715 32.7661L82.0777 33.8282L89.6273 41.7993L82.0777 49.7681ZM95.6981 35.389L90.8215 40.539L82.2637 31.5081L87.1427 26.358C87.3642 26.122 87.7523 26.122 87.9738 26.358L95.7002 34.5139C95.9281 34.7544 95.9281 35.1485 95.6981 35.389Z" fill="white"/>
</svg>
